# xmcd
#
# Track frame offsets:
#	150
#	19285
#	40680
#	61119
#	90869
#	115903
#	138215
#	161732
#	193272
#	217960
#	238932
#	262723
#	283363
#	312502
#
# Disc length: 4403 seconds
#
# Revision: 1
# Processed by: cddbd v1.4PL0 Copyright (c) Steve Scherf et al.
# Submitted via: audiograbber 1.80.04
#
DISCID=c311310e
DTITLE=Tony Joe White - The Best
DYEAR=1900
DGENRE=
TTITLE0=Crack The Window Baby
TTITLE1=Let The Healing Begin
TTITLE2=Cold Fingers
TTITLE3=Close To The Truth
TTITLE4=The Guitar Don't Lie
TTITLE5=I Want To Be With You
TTITLE6=Ain't Going Down This Time
TTITLE7=I Believe I've Lost My Way
TTITLE8=The Coloness Of The Chain
TTITLE9=Across From Midnight
TTITLE10=(You're Gonna Look) Good In Blues
TTITLE11=Selena
TTITLE12=Down Again
TTITLE13=Tina
EXTD=
EXTT0=
EXTT1=
EXTT2=
EXTT3=
EXTT4=
EXTT5=
EXTT6=
EXTT7=
EXTT8=
EXTT9=
EXTT10=
EXTT11=
EXTT12=
EXTT13=
PLAYORDER=
